<svg xmlns="http://www.w3.org/2000/svg" xmlns:xlink="http://www.w3.org/1999/xlink" viewBox="0 0 426.47 384.94"><defs><linearGradient id="a" x1="62.75" y1="270" x2="477.25" y2="270" gradientUnits="userSpaceOnUse"><stop offset="0" stop-color="#00adff"/><stop offset="1" stop-color="#065892"/><stop offset="1"/></linearGradient></defs><path d="M189,456.47c-13.81,0-31.33-10-38.28-21.92L68.06,293.17c-7-12-7.09-32.21-.23-44.23L149,106.7c6.86-12,24.34-22.24,38.19-22.32l163.89-.85c13.81,0,31.33,10,38.28,21.92l82.61,141.38c7,12,7.09,32.21.23,44.23L391,433.3c-6.86,12-24.34,22.24-38.19,22.32Z" transform="translate(-56.77 -77.53)" style="fill:url(#a)"/><path d="M351.07,89.53c11.73,0,27.18,8.86,33.08,18.94l82.61,141.39c5.93,10.15,6,28,.2,38.23L385.82,430.33c-5.83,10.21-21.25,19.23-33,19.29l-163.76.85H189c-11.74,0-27.2-8.85-33.1-18.94L73.24,290.14c-5.93-10.15-6-28-.2-38.23l81.14-142.24c5.83-10.21,21.25-19.23,33-19.29L351,89.53h.12m0-12h-.17l-163.76.85c-16,.09-35.46,11.49-43.36,25.34L62.62,246c-7.91,13.86-7.79,36.46.26,50.23l82.61,141.39c8,13.72,27.54,24.89,43.46,24.89h.17l163.76-.85c15.95-.09,35.46-11.49,43.36-25.34L477.38,294c7.91-13.86,7.79-36.46-.26-50.23L394.51,102.42c-8-13.72-27.54-24.89-43.46-24.89Z" transform="translate(-56.77 -77.53)"/><path d="M268.61,384.19q-49,0-76-27.69t-27-78V254.11q0-49.87,27-77.23t76-27.36q28.13,0,50.87,9.45t36.15,27l-38.9,37.79a57.63,57.63,0,0,0-19.44-12,66.32,66.32,0,0,0-23.62-4.28q-22.86,0-35.38,12.2t-12.52,34.38V278.5q0,22.86,12.52,35.27t35.38,12.41a62.12,62.12,0,0,0,23.62-4.61,55.14,55.14,0,0,0,19.44-13.19l38.9,40q-13.41,17.13-36.15,26.47T268.61,384.19Z" transform="translate(-56.77 -77.53)" style="fill:#fff;stroke:#000;stroke-miterlimit:10;stroke-width:10px"/><path d="M274.6,306.09q-15.68,0-24.24-8.68T241.79,273V260.61q0-15.6,8.57-24.17t24.24-8.57q15.67,0,24.25,8.57t8.57,24.17v12.6q0,15.68-8.57,24.28T274.6,306.09Zm-.07-19.33q6.08,0,9.45-3.55t3.37-10v-12.6q0-6.37-3.37-9.89t-9.45-3.51q-6,0-9.34,3.51t-3.33,9.89v12.6q0,6.44,3.33,10T274.53,286.76Z" transform="translate(-56.77 -77.53)" style="fill:#fff;stroke:#000;stroke-miterlimit:10;stroke-width:8px"/></svg>